HIERARCHY
ROOT hip
{
  OFFSET 0 0 0
  CHANNELS 6 Xposition Yposition Zposition Zrotation Yrotation Xrotation
  JOINT abdomen
  {
    OFFSET 0 20.6881 -0.73152
    CHANNELS 3 Zrotation Xrotation Yrotation
    JOINT chest
    {
      OFFSET 0 11.7043 -0.48768
      CHANNELS 3 Zrotation Xrotation Yrotation
      JOINT neck
      {
        OFFSET 0 22.1894 -2.19456
        CHANNELS 3 Zrotation Xrotation Yrotation
        JOINT head
        {
          OFFSET -0.24384 7.07133 1.2192
          CHANNELS 3 Zrotation Xrotation Yrotation
          JOINT leftEye
          {
            OFFSET 4.14528 8.04674 8.04672
            CHANNELS 3 Zrotation Xrotation Yrotation
            End Site
            {
              OFFSET 1 0 0
            }
          }
          JOINT rightEye
          {
            OFFSET -3.6576 8.04674 8.04672
            CHANNELS 3 Zrotation Xrotation Yrotation
            End Site
            {
              OFFSET 1 0 0
            }
          }
        }
      }
      JOINT rCollar
      {
        OFFSET -2.68224 19.2634 -4.8768
        CHANNELS 3 Zrotation Xrotation Yrotation
        JOINT rShldr
        {
          OFFSET -8.77824 -1.95073 1.46304
          CHANNELS 3 Zrotation Xrotation Yrotation
          JOINT rForeArm
          {
            OFFSET -28.1742 -1.7115 0.48768
            CHANNELS 3 Zrotation Xrotation Yrotation
            JOINT rHand
            {
              OFFSET -22.5879 0.773209 7.07136
              CHANNELS 3 Zrotation Xrotation Yrotation
              JOINT rThumb1
              {
                OFFSET -1.2192 -0.487915 3.41376
                CHANNELS 3 Zrotation Xrotation Yrotation
                JOINT rThumb2
                {
                  OFFSET -3.37035 -0.52449 3.41376
                  CHANNELS 3 Zrotation Xrotation Yrotation
                  End Site
                  {
                    OFFSET -1.78271 -1.18214 1.43049
                  }
                }
              }
              JOINT rIndex1
              {
                OFFSET -7.75947 0.938293 5.60832
                CHANNELS 3 Zrotation Xrotation Yrotation
                JOINT rIndex2
                {
                  OFFSET -2.54057 -0.884171 1.56538
                  CHANNELS 3 Zrotation Xrotation Yrotation
                  End Site
                  {
                    OFFSET -1.62519 -0.234802 1.16502
                  }
                }
              }
              JOINT rMid1
              {
                OFFSET -8.24714 1.18213 3.41376
                CHANNELS 3 Zrotation Xrotation Yrotation
                JOINT rMid2
                {
                  OFFSET -3.10165 -0.590103 1.0647
                  CHANNELS 3 Zrotation Xrotation Yrotation
                  End Site
                  {
                    OFFSET -2.48547 -0.328903 0.83742
                  }
                }
              }
              JOINT rRing1
              {
                OFFSET -8.82822 0.546677 1.51678
                CHANNELS 3 Zrotation Xrotation Yrotation
                JOINT rRing2
                {
                  OFFSET -2.60934 -0.819778 -0.0198488
                  CHANNELS 3 Zrotation Xrotation Yrotation
                  End Site
                  {
                    OFFSET -2.33842 -0.294052 0.168128
                  }
                }
              }
              JOINT rPinky1
              {
                OFFSET -8.27202 -0.0477905 -0.4584
                CHANNELS 3 Zrotation Xrotation Yrotation
                JOINT rPinky2
                {
                  OFFSET -1.82734 -0.647385 -0.700984
                  CHANNELS 3 Zrotation Xrotation Yrotation
                  End Site
                  {
                    OFFSET -1.69225 -0.51767 -0.607171
                  }
                }
              }
            }
          }
        }
      }
      JOINT lCollar
      {
        OFFSET 2.68224 19.2634 -4.8768
        CHANNELS 3 Zrotation Xrotation Yrotation
        JOINT lShldr
        {
          OFFSET 8.77824 -1.95073 1.46304
          CHANNELS 3 Zrotation Xrotation Yrotation
          JOINT lForeArm
          {
            OFFSET 28.1742 -1.7115 0.48768
            CHANNELS 3 Zrotation Xrotation Yrotation
            JOINT lHand
            {
              OFFSET 22.5879 0.773209 7.07136
              CHANNELS 3 Zrotation Xrotation Yrotation
              JOINT lThumb1
              {
                OFFSET 1.2192 -0.487915 3.41376
                CHANNELS 3 Zrotation Xrotation Yrotation
                JOINT lThumb2
                {
                  OFFSET 3.37035 -0.52449 3.41376
                  CHANNELS 3 Zrotation Xrotation Yrotation
                  End Site
                  {
                    OFFSET 1.78271 -1.18214 1.43049
                  }
                }
              }
              JOINT lIndex1
              {
                OFFSET 7.75947 0.938293 5.60832
                CHANNELS 3 Zrotation Xrotation Yrotation
                JOINT lIndex2
                {
                  OFFSET 2.54057 -0.884171 1.56538
                  CHANNELS 3 Zrotation Xrotation Yrotation
                  End Site
                  {
                    OFFSET 1.62519 -0.234802 1.16502
                  }
                }
              }
              JOINT lMid1
              {
                OFFSET 8.24714 1.18213 3.41376
                CHANNELS 3 Zrotation Xrotation Yrotation
                JOINT lMid2
                {
                  OFFSET 3.10165 -0.590103 1.0647
                  CHANNELS 3 Zrotation Xrotation Yrotation
                  End Site
                  {
                    OFFSET 2.48547 -0.328903 0.83742
                  }
                }
              }
              JOINT lRing1
              {
                OFFSET 8.82822 0.546677 1.51678
                CHANNELS 3 Zrotation Xrotation Yrotation
                JOINT lRing2
                {
                  OFFSET 2.60934 -0.819778 -0.0198488
                  CHANNELS 3 Zrotation Xrotation Yrotation
                  End Site
                  {
                    OFFSET 2.33842 -0.294052 0.168128
                  }
                }
              }
              JOINT lPinky1
              {
                OFFSET 8.27202 -0.0477905 -0.4584
                CHANNELS 3 Zrotation Xrotation Yrotation
                JOINT lPinky2
                {
                  OFFSET 1.82734 -0.647385 -0.700984
                  CHANNELS 3 Zrotation Xrotation Yrotation
                  End Site
                  {
                    OFFSET 1.69225 -0.51767 -0.607171
                  }
                }
              }
            }
          }
        }
      }
    }
  }
  JOINT rButtock
  {
    OFFSET -8.77824 4.35084 1.2192
    CHANNELS 3 Zrotation Xrotation Yrotation
    JOINT rThigh
    {
      OFFSET 0 -1.70687 -2.19456
      CHANNELS 3 Zrotation Xrotation Yrotation
      JOINT rShin
      {
        OFFSET 0 -36.8199 0.73152
        CHANNELS 3 Zrotation Xrotation Yrotation
        JOINT rFoot
        {
          OFFSET 0.73152 -45.1104 -5.12064
          CHANNELS 3 Zrotation Xrotation Yrotation
          End Site
          {
            OFFSET -1.1221 -3.69964 12.103
          }
        }
      }
    }
  }
  JOINT lButtock
  {
    OFFSET 8.77824 4.35084 1.2192
    CHANNELS 3 Zrotation Xrotation Yrotation
    JOINT lThigh
    {
      OFFSET 0 -1.70687 -2.19456
      CHANNELS 3 Zrotation Xrotation Yrotation
      JOINT lShin
      {
        OFFSET 0 -36.8199 0.73152
        CHANNELS 3 Zrotation Xrotation Yrotation
        JOINT lFoot
        {
          OFFSET -0.73152 -45.1104 -5.12064
          CHANNELS 3 Zrotation Xrotation Yrotation
          End Site
          {
            OFFSET 1.1221 -3.69964 12.103
          }
        }
      }
    }
  }
}
MOTION
Frames:	9
Frame Time:	0.03333
0.0 0.0 0.0 0.0 0.0 0.0 0.0 0.0 0.0 0.0 0.0 0.0 0.0 0.0 0.0 0.0 0.0 0.0 0.0 0.0 0.0 0.0 0.0 0.0 0.0 0.0 0.0 0.0 0.0 0.0 0.0 0.0 0.0 0.0 0.0 0.0 0.0 0.0 0.0 0.0 0.0 0.0 0.0 0.0 0.0 0.0 0.0 0.0 0.0 0.0 0.0 0.0 0.0 0.0 0.0 0.0 0.0 0.0 0.0 0.0 0.0 0.0 0.0 0.0 0.0 0.0 0.0 0.0 0.0 0.0 0.0 0.0 0.0 0.0 0.0 0.0 0.0 0.0 0.0 0.0 0.0 0.0 0.0 0.0 0.0 0.0 0.0 0.0 0.0 0.0 0.0 0.0 0.0 0.0 0.0 0.0 0.0 0.0 0.0 0.0 0.0 0.0 0.0 0.0 0.0 0.0 0.0 0.0 0.0 0.0 0.0 0.0 0.0 0.0 0.0 0.0 0.0 0.0 0.0 0.0 0.0 0.0 0.0 0.0 0.0 0.0 0.0 0.0 0.0 0.0 0.0 0.0
-0.1278 64.9777 -0.0686 -2.855902 -80.171766 2.213636 0.525252 -2.229954 169.480189 8.107103 -11.774003 -141.494698 -9.223039 -17.364701 -41.519304 47.583933 29.484707 102.417798 159.653457 7.297834 -39.128412 -39.59023 5.054401 -13.982202 -87.302431 -53.933801 172.182138 -167.389843 -13.430956 175.401113 31.155153 -46.642408 75.451748 -143.454455 -32.140369 -16.141742 9.67963 25.298338 50.958694 159.60413 -26.72688 -98.102654 136.071633 -4.298113 142.147197 176.033093 -22.838755 -82.50869 158.305866 9.61182 -137.987609 104.986203 -8.237722 118.269461 83.544931 34.981319 -56.761363 88.72914 48.039949 -46.488828 45.116392 -51.313579 -77.200544 139.877556 44.704607 -176.742883 -48.179946 45.938778 -41.583167 -16.565704 44.126602 1.430314 178.357434 28.119625 25.847967 -70.69982 -54.131173 13.041361 -12.068367 -20.165338 -20.35215 -31.597936 2.858492 -169.392464 30.1389 40.174524 109.922443 -6.217193 38.21168 158.459987 -160.98767 14.836968 110.930367 87.53654 48.578117 6.57552 87.810579 35.665191 96.456772 70.043204 -18.669012 128.374417 94.592559 25.074484 85.62176 18.791506 -32.965675 16.936186 56.028146 3.990229 91.83096 -0.092661 56.529967 -179.892703 6.120094 0.389515 101.700471 78.975751 -23.626359 -93.879482 38.464325 0.946025 79.793779 -9.094762 33.412818 174.171103 5.106346 -4.574063 80.379802 64.095048 -48.51829 -117.581182
0.744 60.7047 -6.1529 -13.385144 -45.792338 25.331673 5.753422 -3.572726 -138.741729 -0.280942 3.797768 147.389337 0.110092 28.524829 71.880509 -32.289295 -8.125074 -73.25807 24.384782 -8.064688 -36.138651 46.245659 -1.667104 -3.902924 -104.626546 60.525448 98.214161 -117.79536 19.428496 91.187132 -157.73572 26.939738 -113.030635 -8.490274 11.41879 -8.722456 -12.536039 -12.066706 -13.852176 -149.689649 -47.149594 77.049955 57.830053 -65.748109 28.546179 -169.553479 -16.59392 113.038648 6.340932 2.107693 22.706282 -5.05934 22.644218 -17.765971 168.142989 -82.700529 168.010452 -75.753085 -49.884004 -77.632557 37.687199 70.785992 6.125253 176.288422 -28.410494 -129.012372 154.094382 11.51734 -160.098963 -129.525044 9.55852 168.822288 -166.034915 -13.883752 -87.345871 -164.44596 -19.104334 -140.25176 5.871229 -10.156374 1.035461 -114.177388 -73.824563 -40.898905 16.749525 -36.267039 -2.360887 -95.505806 -72.16602 2.568357 156.941903 3.159973 -144.85192 -5.356569 55.621644 13.686581 154.36823 -46.494807 172.043439 -46.458655 62.826465 39.346941 -17.882463 -21.08064 -2.025225 -147.316934 51.454565 145.300379 -99.528112 48.221381 -69.006119 122.352159 38.448428 168.291826 15.74462 -66.264722 -68.885984 176.297603 19.399613 103.834787 121.166607 79.281235 50.085891 -145.488251 5.146676 -72.987713 -92.435524 29.37203 -134.61811 -18.497778 26.638939 -125.393729
1.5558 61.109199999999994 -11.5831 -15.629464 -47.100051 28.680172 7.111422 -0.002852 -89.968343 5.905089 3.074308 85.661625 -36.805606 17.020702 -11.671279 43.533884 -12.994525 38.390486 -165.760074 -7.163238 -53.230884 19.036718 14.237482 73.360403 -53.332959 24.941858 57.094564 -25.983313 25.086559 85.157903 -163.443717 -75.068382 -95.464929 -20.304668 9.942698 2.086921 -67.029779 34.413768 4.10516 -154.288342 -45.439407 55.598623 -39.899091 63.174069 24.958868 0.440183 1.456429 34.327678 28.547937 -12.267673 -8.988423 10.838378 -41.189849 38.773241 -118.993269 35.258853 129.162444 -120.459883 18.129506 150.131221 -166.880859 6.571168 -110.332146 -141.346832 -0.922427 -44.928176 -3.393486 -9.603379 14.749102 -76.451091 2.689967 -26.088642 177.925118 -3.895849 -97.619371 -149.507676 -29.490057 -138.942077 -14.941544 -6.484432 7.076519 167.450827 -3.428031 -85.742084 -163.094945 -51.069489 -105.048938 152.898483 15.403278 -99.778355 2.288364 -9.483642 28.21586 169.956612 12.073016 -79.584198 -172.60032 15.038197 -157.471006 -34.324669 -62.626506 -31.437426 177.975666 7.301656 143.709553 -82.181297 56.413965 80.811978 -154.704204 80.213194 -22.221662 157.586815 61.896523 -165.459878 -15.646435 -54.343446 -171.188089 122.920855 -54.071698 48.607071 52.447566 62.990327 117.589353 -131.631527 13.800613 -98.492727 -85.200761 18.270091 174.428311 -9.358425 -55.335873 -94.770132
1.5994000000000002 59.9927 -13.3853 -10.58252 -43.34839 23.202659 0.286401 9.834544 5.503414 6.515539 -15.361158 -20.382806 -53.756484 13.527962 -54.552441 60.650928 36.667119 62.148651 51.383059 -19.095313 -38.541443 26.25325 13.331684 53.236212 -137.478683 6.494932 111.836662 136.568586 -20.134777 170.765262 173.768332 -7.295703 69.010581 -164.399183 4.459943 147.402677 -159.571704 24.315929 75.558258 -146.079648 -4.373541 31.944379 20.997476 -3.668117 2.589609 -175.752383 1.956455 -176.082077 -129.075283 -65.761537 175.769574 -133.949189 -27.132893 121.489805 -2.028022 -4.446456 7.359895 159.902009 68.091434 -163.351275 -112.897816 -36.138916 -45.720061 -3.597343 34.357879 -135.378017 -10.010081 49.884362 2.324962 82.92646 16.785727 -93.523661 176.201887 -6.457758 130.557055 -4.891489 39.745178 -4.594377 -46.180093 -53.342536 3.451159 -27.348566 -42.106366 -24.477259 -162.825136 7.381149 -106.80709 0.590083 -49.044129 -41.777369 21.597996 64.717439 -7.110518 47.168181 -34.684763 26.096202 92.591525 24.071627 -107.477525 -90.61104 1.767755 54.734078 53.583802 -33.870221 -6.858993 -23.069285 -54.848267 48.06249 -62.879975 51.620547 -42.34347 75.690156 5.262189 88.071653 43.7834 44.751436 -105.147207 -47.044157 -48.147403 14.613774 31.050712 16.520663 80.254939 -89.117808 -18.059729 7.170507 81.06056 28.191652 -160.464955 21.444746 36.052775 63.616785
0.7185 59.255199999999995 -13.078699999999998 -5.821303 -38.613096 18.662939 -3.197729 12.278092 -74.05913 15.932448 4.174138 54.501275 -49.376266 14.463827 -77.498704 43.392847 53.942727 79.974222 35.749118 3.493242 10.802967 25.709072 12.15768 50.035589 -116.685806 21.915641 104.837928 -65.644845 39.474064 15.027714 15.141034 4.942676 -110.509066 -160.901681 19.548513 144.292454 170.96491 -12.793787 90.054671 -70.631514 -5.955369 -9.429612 -159.412089 -42.495609 107.555565 -107.706566 -22.650712 10.747817 15.489289 64.606354 -18.644256 -140.27501 70.1639 94.504036 -95.494823 -57.413521 -97.044351 -155.464327 -41.767596 148.821172 -87.028732 -29.808336 -5.626763 -13.647429 -33.979897 -139.643323 -6.731963 55.176282 -1.776123 104.30864 16.892604 -90.127308 -2.814341 -19.82506 78.521265 -136.890546 -41.869718 -137.464438 3.752949 4.561497 12.430874 70.187457 0.598896 -18.155802 54.814677 -7.374613 14.510633 -81.734586 72.531575 41.046755 12.664316 -21.248926 6.014629 9.651491 25.01873 -3.16795 95.139174 16.50758 -125.395835 32.418537 -9.995538 147.718877 136.435885 -75.120531 103.877968 -9.344158 -25.207917 37.850522 -57.303608 54.217401 -38.537917 78.120052 -9.226111 -7.78363 -68.299497 38.467206 -176.060303 -94.812874 -44.557756 -167.491568 -83.18061 -9.179398 -54.272839 92.049606 -15.580406 4.96327 32.065457 80.141804 26.220823 48.702722 -57.405574 -37.386494
-0.7599 61.0769 -11.2286 -2.440866 -34.681596 14.6978 -5.778641 14.303874 -82.805698 12.343445 6.690395 60.996761 -35.571903 11.181764 -94.539543 16.280435 50.517608 106.288306 24.514423 4.079547 18.620163 26.353203 10.934386 44.471214 60.312417 -57.169633 50.59395 91.479929 -30.53292 -3.502296 40.891798 -68.780399 -72.886422 -162.716528 21.433409 145.014267 25.031561 -31.274631 -0.370476 -23.740172 27.940065 24.079846 42.951871 -53.759762 8.014996 176.430492 -21.07599 171.401243 -33.300486 -53.066532 -63.766467 -168.778834 -65.297868 125.925085 106.96048 44.265252 -101.069977 59.997457 57.393082 -113.740952 164.123312 51.591514 175.901139 166.118281 16.050679 160.093815 -9.969515 -0.453112 16.104699 -149.068252 -39.12347 -74.026109 83.106854 82.274309 -120.249972 3.972772 61.760905 -13.863208 159.307026 23.539588 -90.972469 116.567552 12.469136 -99.22944 41.68687 1.301382 30.347672 117.424045 -69.04866 -137.882176 72.957284 63.897956 -35.477607 -4.282945 15.584576 -26.257138 -71.164755 -58.333096 -42.570647 133.76207 24.038828 -33.874293 28.612728 26.678692 -56.746871 -31.145461 67.073648 24.543362 39.139611 9.830571 4.888929 -65.663796 -27.035943 98.720694 87.767612 -45.510666 39.613815 65.4217 56.144616 -159.011366 9.23703 61.952309 100.203902 -119.135591 4.554433 -102.483675 -72.73922 51.276496 -21.086723 -10.651357 71.296844 107.710865
-2.086 62.354200000000006 -7.198200000000001 -3.465501 -40.419535 15.046393 -6.668741 14.764283 -41.649752 10.928534 -4.21548 30.530585 -1.556136 10.918211 97.407958 -20.371904 -13.418748 -82.929888 30.554929 1.475027 5.396439 40.645711 11.712337 30.958507 22.177801 -49.600114 18.331722 96.40458 1.019315 20.890476 -42.574216 77.662786 120.506086 -3.351391 -29.701265 2.86825 -85.597552 48.937288 52.227444 174.807659 -10.693293 79.589093 -37.502707 29.394011 31.777145 -6.361262 29.586795 24.901559 -144.952406 -31.73318 -158.781568 18.62575 -2.310203 -44.632382 -125.212334 15.391723 -60.152035 130.121074 2.679843 -7.722552 -47.905497 -46.958603 38.196072 -64.631343 -13.081854 -113.966188 -4.537062 33.368663 8.565504 123.573257 -3.215275 -94.097524 168.35437 18.257091 148.813415 15.300949 64.098889 -23.539486 6.189945 -34.826817 14.650945 -24.900426 -2.811001 14.059652 24.441684 -43.3276 39.308097 169.670227 37.488418 -125.416788 34.492431 -61.714336 45.841575 140.288695 -67.914147 -171.348993 -30.76906 -12.176927 -15.763642 118.48546 -9.537601 42.882715 152.113451 -41.125536 178.671075 22.754358 49.632103 -74.903698 91.598791 64.386314 45.035463 -138.279323 33.746802 -17.302976 93.997638 73.007531 173.813311 139.335405 43.698035 -51.416126 -79.479939 -7.489013 -8.61351 89.231487 -46.112625 -0.49975 -64.250384 79.19416 -147.390958 137.330764 58.937142 131.061101
-3.7559 64.23060000000001 -2.6738999999999997 -2.631044 -41.751987 13.749948 -14.393897 12.241883 8.197473 10.260891 -8.283683 -20.201059 -14.592929 14.189294 -89.405188 24.935937 23.795598 106.508352 34.628536 -0.849473 -2.72449 32.869975 3.358973 11.353102 -162.098057 -6.776232 148.205252 117.4687 1.433599 -106.214031 145.320634 -48.510735 37.179106 -155.722581 33.548716 144.765253 -173.988789 -66.21235 66.956963 18.062295 1.148693 17.556638 -144.090734 24.604482 116.600268 96.237302 -72.652654 86.02758 -139.581406 14.22918 -175.262843 -175.079238 28.332996 -172.322094 -111.454114 28.50382 -50.276515 124.964824 -67.759296 -26.719828 -170.743653 -16.696661 161.360915 -55.522361 46.869719 103.135231 156.662049 55.534605 -173.067663 -118.615606 -42.646689 173.717286 13.557946 -11.08387 -25.845237 10.718787 55.726083 -24.668409 -4.00534 -51.543863 11.261054 92.277004 -36.996981 -146.120346 41.724821 -63.801827 63.594649 13.435488 5.071828 -27.088446 174.908016 -46.678992 -178.946344 178.895368 -24.264364 164.124162 128.615446 -1.859178 175.870861 -174.025078 23.471394 -112.112596 100.57662 37.719901 -151.416201 127.409931 41.520508 155.055092 -59.558895 4.771652 -23.908985 63.761213 -23.406278 -111.697362 -85.543324 -33.949072 109.337535 86.565581 -54.070427 -16.847673 -87.989764 -0.064226 -8.613542 103.378617 -44.765617 -178.364768 65.785915 -60.128137 141.605293 85.271838 -32.206012 170.829661
